{"accessors" : [{"bufferView" : 0, "byteOffset" : 0, "componentType" : 5123, "count" : 44985, "type" : "SCALAR", "max" : [44984], "min" : [0]}, {"bufferView" : 1, "byteOffset" : 0, "componentType" : 5126, "count" : 44985, "type" : "VEC3", "max" : [0.06390000134706497, 0.012600000016391277, -0.000699999975040555], "min" : [-0.07039999961853027, -0.018200000748038292, -0.19259999692440033]}, {"bufferView" : 1, "byteOffset" : 12, "componentType" : 5126, "count" : 44985, "type" : "VEC3", "max" : [1.0000044107437134, 1.0000044107437134, 1.0000044107437134], "min" : [-1.0000044107437134, -0.9999072551727295, -1.0000044107437134]}, {"bufferView" : 1, "byteOffset" : 24, "componentType" : 5126, "count" : 44985, "type" : "VEC2", "max" : [0.9980000257492065, 0.9980999827384949], "min" : [0.0019000000320374966, 0.1371999979019165]}, {"bufferView" : 0, "byteOffset" : 89972, "componentType" : 5123, "count" : 29034, "type" : "SCALAR", "max" : [29033], "min" : [0]}, {"bufferView" : 2, "byteOffset" : 0, "componentType" : 5126, "count" : 29034, "type" : "VEC3", "max" : [0.019300000742077827, 0.006500000134110451, -0.06340000033378601], "min" : [-0.026200000196695328, -0.018400000408291817, -0.11640000343322754]}, {"bufferView" : 2, "byteOffset" : 12, "componentType" : 5126, "count" : 29034, "type" : "VEC3", "max" : [0.999958336353302, 0.9999213218688965, 0.9322139620780945], "min" : [-0.9999175071716309, -0.9999747276306152, -0.680824339389801]}, {"bufferView" : 2, "byteOffset" : 24, "componentType" : 5126, "count" : 29034, "type" : "VEC2", "max" : [0.9980000257492065, 0.9980999827384949], "min" : [0.0019000000320374966, 0.2337999939918518]}, {"bufferView" : 0, "byteOffset" : 148040, "componentType" : 5123, "count" : 17472, "type" : "SCALAR", "max" : [17471], "min" : [0]}, {"bufferView" : 4, "byteOffset" : 0, "componentType" : 5126, "count" : 17472, "type" : "VEC3", "max" : [0.027400000020861626, 0.011900000274181366, -0.10760000348091125], "min" : [-0.033799998462200165, -0.018400000408291817, -0.1662999987602234]}, {"bufferView" : 4, "byteOffset" : 12, "componentType" : 5126, "count" : 17472, "type" : "VEC3", "max" : [0.9999557733535767, 0.9998587965965271, 0.9855153560638428], "min" : [-0.9998932480812073, -1.0000027418136597, -0.9968692064285278]}, {"bufferView" : 4, "byteOffset" : 24, "componentType" : 5126, "count" : 17472, "type" : "VEC2", "max" : [0.9980000257492065, 0.9980999827384949], "min" : [0.0019000000320374966, 0.3044000267982483]}], "asset" : {"generator" : "Aspose.3D 20.11", "version" : "2.0"}, "buffers" : [{"uri" : "buffer.bin", "byteLength" : 6732028}], "bufferViews" : [{"buffer" : 0, "byteOffset" : 0, "byteLength" : 182984, "target" : 34963}, {"buffer" : 0, "byteOffset" : 182988, "byteLength" : 1439520, "byteStride" : 32, "target" : 34962}, {"buffer" : 0, "byteOffset" : 1622512, "byteLength" : 929088, "byteStride" : 32, "target" : 34962}, {"buffer" : 0, "byteOffset" : 2551604, "byteLength" : 1778437}, {"buffer" : 0, "byteOffset" : 4330044, "byteLength" : 559104, "byteStride" : 32, "target" : 34962}, {"buffer" : 0, "byteOffset" : 4889152, "byteLength" : 1842873}], "images" : [{"mimeType" : "image/png", "bufferView" : 3}, {"mimeType" : "image/png", "bufferView" : 5}], "materials" : [{"pbrMetallicRoughness" : {"baseColorFactor" : [1, 1, 1, 1], "metallicFactor" : 0, "roughnessFactor" : 0}, "emissiveFactor" : [0, 0, 0], "alphaMode" : "OPAQUE", "doubleSided" : true}, {"pbrMetallicRoughness" : {"baseColorFactor" : [1, 1, 1, 1], "baseColorTexture" : {"index" : 0, "texCoord" : 0}, "metallicFactor" : 0, "roughnessFactor" : 0.4000000059604645}, "emissiveFactor" : [0, 0, 0], "alphaMode" : "OPAQUE", "doubleSided" : true}, {"pbrMetallicRoughness" : {"baseColorFactor" : [1, 1, 1, 1], "baseColorTexture" : {"index" : 1, "texCoord" : 0}, "metallicFactor" : 0, "roughnessFactor" : 0.8114382028579712}, "emissiveFactor" : [0, 0, 0], "alphaMode" : "OPAQUE", "doubleSided" : true}], "meshes" : [{"primitives" : [{"attributes" : {"POSITION" : 1, "NORMAL" : 2, "TEXCOORD_0" : 3}, "indices" : 0, "material" : 0, "mode" : 4}]}, {"primitives" : [{"attributes" : {"POSITION" : 5, "NORMAL" : 6, "TEXCOORD_0" : 7}, "indices" : 4, "material" : 1, "mode" : 4}]}, {"primitives" : [{"attributes" : {"POSITION" : 9, "NORMAL" : 10, "TEXCOORD_0" : 11}, "indices" : 8, "material" : 2, "mode" : 4}]}], "nodes" : [{"matrix" : [1, 0, 0, 0, 0, -1.3435885648505064E-07, 0.9999999657714511, 0, 0, -0.9999999657714511, -1.3435885648505064E-07, 0, 0, 0, 0, 1], "mesh" : 0, "name" : "Body"}, {"matrix" : [1, 0, 0, 0, 0, -1.3435885648505064E-07, 0.9999999657714511, 0, 0, -0.9999999657714511, -1.3435885648505064E-07, 0, 0, 0, 0, 1], "mesh" : 1, "name" : "Shorts"}, {"matrix" : [1, 0, 0, 0, 0, -1.3435885648505064E-07, 0.9999999657714511, 0, 0, -0.9999999657714511, -1.3435885648505064E-07, 0, 0, 0, 0, 1], "mesh" : 2, "name" : "Tshirt"}], "samplers" : [{"magFilter" : 9729, "minFilter" : 9729, "wrapS" : 10497, "wrapT" : 10497}, {"magFilter" : 9729, "minFilter" : 9729, "wrapS" : 10497, "wrapT" : 10497}], "scene" : 0, "scenes" : [{"nodes" : [0, 1, 2]}], "textures" : [{"sampler" : 0, "source" : 0}, {"sampler" : 1, "source" : 1}]}